# xmcd CD database file
#
# Track frame offsets:
#	150
#	19224
#	39511
#	63303
#	84549
#	101053
#	122608
#	138115
#	156343
#	166098
#	181581
#	195225
#	212458
#	234775
#
# Disc length: 3384 seconds
#
# Revision: 0
# Processed by: cddbd v1.5.2PL0 Copyright (c) Steve Scherf et al.
# Submitted via: CDex 1.51
#
DISCID=a30d360e
DTITLE=Compilation - Los Dinosaurios - Salsa and Mambos Underground Volumen 1
DYEAR=2009
DGENRE=Salsa
TTITLE0=01. GUANGUANCO DEL SOLAR - BUSH Y SU NUEVO SONIDO (PANAMA)
TTITLE1=02. LA TOALLA - RAFAEL LA BASTA Y SU ORQUESTA (REPUBLICA DOMENICANA)
TTITLE2=03. BABAILA - LA COMBINATION 77 (VENEZUELA)
TTITLE3=04. SON EN AMBIENTE - ORQUESTA LA RENOVATION (VENEZUELA)
TTITLE4=05. SALSA NA' MA - DAVID CEDEÑO and HIS ORCHESTRA (USA)
TTITLE5=06. ME DUELE EL CORAZON - NELSON FELICIANO (PUERTO RICO)
TTITLE6=07. ESTAS EN ALGO - ORCHESTA LA AMPLIACION (VENEZUELA)
TTITLE7=08. EL REY DEL GUAGUANCO - WASHINGTON Y SUS LATINOS (COLOMBIA)
TTITLE8=09. EL DIABOLITO - JACK CONSTANZO (USA)
TTITLE9=10. ANIMATE - TOBY MUÑOZ Y SU ORQUESTA (PANAMA)
TTITLE10=11. APRENDELO COMO YO - SONIA LOPEZ Y SU TREMENDON COMBO (PUERTO RICO)
TTITLE11=12. TREMEMENDA BRONCA - DANNY GONZALEZ Y SU ORQUESTA SENSACIONAL (USA)
TTITLE12=13. MI SALSA LLEGO - TITO CHICOMA (PERU)
TTITLE13=14. PRENDE EL FOGON - CARLOS MIRANDA Y SU LATIN COMBO (PERU)
EXTD=YEAR: 2009
EXTT0=
EXTT1=
EXTT2=
EXTT3=
EXTT4=
EXTT5=
EXTT6=
EXTT7=
EXTT8=
EXTT9=
EXTT10=
EXTT11=
EXTT12=
EXTT13=
PLAYORDER=
